<?xml version="1.0" standalone="no"?>
<!DOCTYPE svg PUBLIC "-//W3C//DTD SVG 20010904//EN"
 "http://www.w3.org/TR/2001/REC-SVG-20010904/DTD/svg10.dtd">
<svg version="1.0" xmlns="http://www.w3.org/2000/svg"
 width="189.000000pt" height="189.000000pt" viewBox="0 0 189.000000 189.000000"
 preserveAspectRatio="xMidYMid meet">
<metadata>
Created by potrace 1.14, written by Peter Selinger 2001-2017
</metadata>
<g transform="translate(0.000000,189.000000) scale(0.100000,-0.100000)"
fill="#000000" stroke="none">
<path d="M0 950 l0 -550 139 0 c124 0 139 2 143 17 2 10 3 91 3 181 -1 89 1
162 4 163 3 0 58 2 121 4 174 4 248 27 323 100 68 66 100 163 96 289 -5 169
-97 291 -248 331 -34 9 -133 13 -315 14 l-266 2 0 -551z m471 300 c35 -16 61
-63 61 -113 2 -92 -48 -135 -165 -140 -36 -2 -70 -1 -75 2 -5 3 -8 66 -8 140
l0 134 81 -6 c44 -2 92 -10 106 -17z"/>
<path d="M981 950 l0 -550 142 0 143 0 -1 205 c0 113 2 205 5 205 5 0 30 -39
203 -312 l62 -98 178 0 178 0 -94 123 c-217 282 -246 322 -239 328 4 4 27 14
52 23 51 19 112 72 137 119 27 51 41 147 32 213 -20 147 -95 236 -236 277 -41
12 -109 16 -307 17 l-255 1 0 -551z m439 309 c51 -23 74 -66 68 -131 -4 -32
-13 -57 -27 -72 -40 -43 -190 -65 -192 -28 -3 51 -4 238 -1 245 6 14 111 4
152 -14z"/>
</g>
</svg>
